Format : MPEG-4
Format profile : Base Media / Version 2
Codec ID : mp42
File size : 333 MiB
Duration : 1h 22mn
Overall bit rate : 567 Kbps
Encoded date : UTC 2010-11-19 17:16:19
Tagged date : UTC 2010-11-19 17:17:59
Writing application : mp4creator 1.6.1d

Video
ID : 1
Format : AVC
Format/Info : Advanced Video Codec
Format profile : Baseline@L1.3
Format settings, CABAC : No
Format settings, ReFrames : 1 frame
Codec ID : avc1
Codec ID/Info : Advanced Video Coding
Duration : 1h 22mn
Bit rate mode : Variable
Bit rate : 503 Kbps
Width : 480 pixels
Height : 272 pixels
Display aspect ratio : 16:9
Original display aspect ratio : 16:9
Frame rate mode : Constant
Frame rate : 24.000 fps
Resolution : 24 bits
Colorimetry : 4:2:0
Scan type : Progressive
Bits/(Pixel*Frame) : 0.160
Stream size : 295 MiB (89%)
Encoded date : UTC 2010-11-19 17:16:19
Tagged date : UTC 2010-11-19 17:17:50

Audio
ID : 2
Format : AAC
Format/Info : Advanced Audio Codec
Format version : Version 4
Format profile : LC
Format settings, SBR : Yes
Format settings, PS : No
Codec ID : 40
Duration : 1h 22mn
Bit rate mode : Variable
Bit rate : 62.7 Kbps
Maximum bit rate : 120 Kbps
Channel(s) : 2 channels
Channel positions : L R
Sampling rate : 48.0 KHz
Resolution : 16 bits
Stream size : 36.8 MiB (11%)
Encoded date : UTC 2010-11-19 17:17:51
Tagged date : UTC 2010-11-19 17:17:59

A sea turtle who was hatched in 1959 spends the next 50 years traveling the world while it is being changed by global warming.
 
http://www.imdb.com/title/tt1230204/

screens 
http://img207.imageshack.us/img207/9750/sammyh264vicemp4snapsho.jpg
http://img716.imageshack.us/img716/9750/sammyh264vicemp4snapsho.jpg
http://img708.imageshack.us/img708/9750/sammyh264vicemp4snapsho.jpg
http://img16.imageshack.us/img16/9750/sammyh264vicemp4snapsho.jpg